<?xml version="1.0" encoding="UTF-8"?><svg id="Capa_2" xmlns="http://www.w3.org/2000/svg" viewBox="0 0 1107.95 799.3"><defs><style>.cls-1{fill:#00b3d6;}.cls-2{fill:#67cce1;}.cls-3{fill:#a0dbe6;}.cls-4{fill:#10c4dd;}.cls-5{fill:#14c5de;}.cls-6{fill:#a1dce7;}.cls-7{fill:#a1dbe7;}</style></defs><g id="Capa_1-2"><g><polygon class="cls-2" points="194.33 470.73 1107.95 0 783.36 776.97 194.33 470.73"/><polygon class="cls-5" points="440.84 598.89 1096.13 6.09 1107.95 0 1102.41 13.24 536.98 648.88 440.84 598.89"/><polygon class="cls-1" points="593.99 678.52 485.41 799.3 440.84 598.89 593.99 678.52"/><polygon class="cls-1" points="744.22 324.44 755.56 403.16 536.98 648.88 440.84 598.89 744.22 324.44"/><polygon class="cls-4" points="485.41 799.3 536.98 648.88 593.99 678.52 485.41 799.3"/><polygon class="cls-3" points="194.33 470.73 744.22 324.44 440.84 598.89 194.33 470.73"/><polygon class="cls-6" points="783.36 776.97 800 353.21 536.98 648.88 783.36 776.97"/><path class="cls-7" d="m71.86,681.61c-2.01,0-4.03-.67-5.7-2.04-26.1-21.41-47.95-47.03-64.93-76.13-2.5-4.29-1.06-9.8,3.24-12.31,4.29-2.51,9.8-1.05,12.31,3.24,15.9,27.25,36.36,51.24,60.8,71.29,3.84,3.15,4.4,8.82,1.25,12.67-1.78,2.17-4.36,3.29-6.96,3.29Z"/><path class="cls-7" d="m269.8,742.23c-4.6,0-8.53-3.51-8.95-8.18-.45-4.95,3.2-9.33,8.14-9.78,32.8-2.99,64.33-11.98,93.71-26.7,4.44-2.23,9.85-.43,12.08,4.01,2.23,4.44.43,9.85-4.01,12.08-31.4,15.73-65.09,25.33-100.14,28.53-.28.03-.55.04-.83.04Z"/><path class="cls-7" d="m214.6,741.73c-.33,0-.66-.02-.99-.05-36.23-3.98-70.83-14.79-102.85-32.13-4.37-2.37-6-7.83-3.63-12.2,2.37-4.37,7.83-6,12.2-3.63,29.96,16.22,62.34,26.34,96.25,30.06,4.94.54,8.51,4.99,7.96,9.93-.51,4.61-4.41,8.02-8.94,8.02Z"/></g></g></svg>