<?xml version="1.0" encoding="UTF-8"?><svg id="Capa_2" xmlns="http://www.w3.org/2000/svg" viewBox="0 0 401.68 187.12"><defs><style>.cls-1{fill:#fff;}</style></defs><g id="Capa_1-2"><g><path class="cls-1" d="m273.05,117.58c-.03.18-.08.32-.08.45,0,12.41,0,24.82-.02,37.22,0,.72.35.79.93.79,12.54,0,25.08-.01,37.62,0,.74,0,.93-.27.9-.93-.04-1.13-.08-2.27,0-3.39.08-1.02-.26-1.3-1.31-1.3-10.12.04-20.25.02-30.37.02-.45,0-.9,0-1.33,0v-12.22h20.41v-5.52h-20.42v-9.56h1.49c9.44,0,18.88,0,28.32,0,.29,0,.61.07.86-.03.23-.09.56-.36.56-.56.05-1.65.03-3.3.03-4.99h-37.61Z"/><path class="cls-1" d="m317.9,151.08c.24.16.35.25.47.32,7.58,4.36,15.75,6.31,24.51,5.7,4.18-.29,8.03-1.62,11.21-4.43,5.97-5.29,4.75-14.47-2.41-18.05-2.31-1.15-4.78-1.82-7.33-2.02-3.19-.25-6.41-.21-9.59-.5-2.13-.19-4.33-.46-6.31-1.18-2.96-1.07-3.4-4.66-.9-6.58,1.02-.78,2.27-1.4,3.52-1.75,4.56-1.29,9.09-.71,13.47.78,2.72.93,5.32,2.23,8.06,3.41.91-1.45,1.92-3.06,2.96-4.71-.25-.17-.41-.3-.59-.41-7-4.07-14.54-5.83-22.66-4.95-3,.32-5.85,1.17-8.36,2.91-3.35,2.32-4.73,5.48-4.21,9.46.5,3.84,2.87,6.01,6.51,7.06.59.17,1.18.38,1.78.43,4.22.37,8.46.63,12.67,1.1,2.27.25,4.61.56,6.73,1.34,4.47,1.63,5.27,6.81,1.56,9.78-1.27,1.02-2.88,1.8-4.46,2.24-5.03,1.4-10.03.68-14.85-.94-3-1.01-5.86-2.44-8.9-3.73-.87,1.43-1.86,3.06-2.87,4.74Z"/><path class="cls-1" d="m80.56,131.28c5.55-4.51,11.01-8.95,16.47-13.38-2.34-.23-4.57-.2-6.79-.25-.85-.02-1.49.23-2.15.76-6.44,5.22-12.91,10.41-19.37,15.6-.22.18-.48.32-.9.59v-16.83h-6.14v38.21h6.19v-1.21c0-4.1.02-8.2-.02-12.3,0-.71.23-1.17.78-1.6,2.24-1.78,4.45-3.6,6.67-5.4.26-.21.55-.4.85-.62.4.5.73.92,1.06,1.33,5.02,6.37,10.04,12.74,15.08,19.11.23.29.56.7.85.71,2.17.06,4.35.03,6.77.03-6.53-8.35-12.9-16.49-19.36-24.75Z"/><path class="cls-1" d="m384.74,156.04v-1.52c0-10.14.01-20.28-.02-30.42,0-.95.23-1.28,1.25-1.26,4.83.05,9.65.02,14.48.02.41,0,.83-.04,1.23-.06v-5.18h-40.04v5.27h16.84v1.4c0,10.07,0,20.14,0,30.21,0,.28-.09.6.02.84.13.28.42.67.66.68,1.79.06,3.59.03,5.57.03Z"/><path class="cls-1" d="m107.33,155.95h6.31v-38.43h-6.31v38.43Z"/><path class="cls-1" d="m0,148.47c1.25-1.73,2.49-3.45,3.73-5.16,2.11,1.27,4.16,2.63,6.31,3.8,5.15,2.8,10.67,4.43,16.58,4.51,4.38.06,8.61-.61,12.34-3.13,3.35-2.26,4.89-5.73,4.01-9.12-.63-2.44-2.31-4.01-4.49-5.15-3.04-1.6-6.37-1.89-9.72-2.09-5.61-.35-11.22-.67-16.66-2.18-1.73-.48-3.46-1.26-4.95-2.26-6.05-4.04-6.51-12.36-1.08-17.21,3.35-2.99,7.37-4.52,11.79-5.01,10.51-1.17,20.03,1.54,28.7,7.37.15.1.29.21.43.32.05.04.07.12.15.25-1.19,1.63-2.4,3.28-3.57,4.88-2.19-1.3-4.23-2.68-6.43-3.78-5.99-3.02-12.34-4.19-19.04-3.15-2.49.39-4.81,1.24-6.77,2.84-3.45,2.82-3.13,7.25.88,9.23,2.04,1.01,4.4,1.59,6.68,1.9,4.09.56,8.24.77,12.36,1.11,4.09.34,8.04,1.14,11.63,3.21,9.37,5.41,9.17,17.16,1.23,22.88-3.84,2.76-8.15,4.18-12.81,4.6-8.26.74-16.24-.38-23.73-4.02-2.31-1.12-4.45-2.59-6.67-3.9-.3-.18-.61-.34-.92-.51,0-.07,0-.14,0-.21Z"/><path class="cls-1" d="m154.19,150.39c.16-.85.16-1.77.5-2.55,10.66-24.01,21.39-47.99,31.99-72.01.81-1.83.91-3.97,1.22-5.99,1.58-10.05,3.14-20.1,4.69-30.15,1.26-8.17,2.51-16.34,3.76-24.51.72-4.68,1.45-9.35,2.16-14.03.09-.6.24-1.13,1.01-1.14.76-.01.96.51,1.05,1.1.67,4.44,1.33,8.87,2.01,13.31,1.26,8.31,2.53,16.62,3.79,24.93,1.33,8.77,2.66,17.53,3.98,26.3.44,2.93.76,5.89,1.38,8.79.33,1.53,1.16,2.95,1.8,4.41,6.24,14.08,12.5,28.15,18.75,42.22.1.22.19.44.15.76-.41-.45-.82-.91-1.23-1.36-3.95-4.36-7.91-8.71-11.82-13.1-.72-.8-1.42-1.32-2.56-1.14-.56.09-1.15.01-1.81.01v49.73h6.39v-37.13c6.43,7.08,12.65,13.91,18.86,20.74.08-.04.16-.09.24-.13-2.45-5.51-4.9-11.01-7.35-16.52.05-.04.11-.09.16-.13,6.15,6.8,12.31,13.6,18.69,20.64v-37.09h6.53c0,.33,0,.67,0,1.01,0,15.84,0,31.68.02,47.52,0,.91-.22,1.15-1.18,1.22-1.55.11-2.57-.41-3.58-1.56-3.93-4.46-7.98-8.83-11.99-13.23-.19-.2-.38-.4-.73-.52.7,1.57,1.31,3.18,2.11,4.7,1.18,2.26,1.57,4.59,1.55,7.13-.09,10.78-.04,21.57-.04,32.35,0,1.94-1.02,2.61-2.86,1.88-12.1-4.8-24.2-9.62-36.32-14.39-1.19-.47-1.63-1.16-1.61-2.4.06-4.24.02-8.48.02-12.73v-1.19c-3.04,0-5.97,0-8.91,0,0-1.92,0-3.85,0-5.77h8.91c0-.36,0-.67,0-.98-.09-3.35-.18-6.71-.28-10.06-.25-8.47-.51-16.95-.76-25.42-.19-6.57-.34-13.14-.53-19.71-.25-8.51-.52-17.02-.77-25.53-.13-4.38-.23-8.76-.35-13.14-.03-1.26-.7-2.01-1.74-2.01-1.05,0-1.68.62-1.73,1.87-.19,5.26-.36,10.52-.53,15.78-.22,7.17-.44,14.34-.65,21.5-.29,9.89-.58,19.77-.87,29.66-.19,6.36-.38,12.71-.54,19.07-.08,3-.1,6-.15,9-5.96,0-11.91,0-18.01,0v-32.82h-6.22v38.5c.48,0,.9,0,1.32,0,4.86,0,9.72,0,14.58,0,2.77,0,5.54.03,8.31.05-.02,3.39-.05,6.78-.07,10.17,0,1.34-.03,2.69,0,4.03.03,1.01-.39,1.65-1.36,2.03-12.24,4.84-24.47,9.69-36.7,14.53-1.65.65-2.73,0-2.73-1.62,0-9.72,0-19.44.01-29.15,0,0-.03.02-.03.02.21-.02.43-.06.64-.07,2.62,0,5.24-.03,7.86,0,.76.01,1.01-.24.98-.98-.05-1.16-.07-2.33,0-3.49.06-.93-.25-1.21-1.2-1.2-2.76.04-5.53-.02-8.29-.05l.03.02Z"/><path class="cls-1" d="m273.05,117.58h37.61c0,1.69.02,3.34-.03,4.99,0,.2-.33.47-.56.56-.25.1-.57.03-.86.03-9.44,0-18.88,0-28.32,0h-1.49v9.56h20.42v5.52h-20.41v12.22c.43,0,.88,0,1.33,0,10.12,0,20.25.02,30.37-.02,1.05,0,1.39.28,1.31,1.3-.09,1.12-.05,2.26,0,3.39.02.67-.16.93-.9.93-12.54-.02-25.08-.02-37.62,0-.58,0-.94-.07-.93-.79.02-12.41.01-24.82.02-37.22,0-.13.04-.27.08-.45Z"/><path class="cls-1" d="m317.9,151.08c1.02-1.67,2-3.31,2.87-4.74,3.04,1.29,5.9,2.72,8.9,3.73,4.83,1.63,9.83,2.34,14.85.94,1.58-.44,3.19-1.22,4.46-2.24,3.71-2.97,2.9-8.15-1.56-9.78-2.12-.78-4.46-1.09-6.73-1.34-4.21-.47-8.45-.72-12.67-1.1-.6-.05-1.19-.26-1.78-.43-3.64-1.05-6.02-3.22-6.51-7.06-.52-3.98.87-7.14,4.21-9.46,2.51-1.74,5.36-2.58,8.36-2.91,8.12-.88,15.66.88,22.66,4.95.18.1.34.24.59.41-1.04,1.65-2.05,3.26-2.96,4.71-2.75-1.18-5.34-2.48-8.06-3.41-4.38-1.49-8.91-2.07-13.47-.78-1.25.35-2.5.97-3.52,1.75-2.49,1.92-2.05,5.51.9,6.58,1.98.72,4.18.99,6.31,1.18,3.19.29,6.4.25,9.59.5,2.56.2,5.03.87,7.33,2.02,7.16,3.58,8.39,12.76,2.41,18.05-3.18,2.82-7.03,4.14-11.21,4.43-8.76.61-16.93-1.34-24.51-5.7-.12-.07-.24-.16-.47-.32Z"/><path class="cls-1" d="m80.56,131.28c6.46,8.26,12.83,16.41,19.36,24.75-2.42,0-4.6.03-6.77-.03-.29,0-.62-.42-.85-.71-5.03-6.36-10.05-12.74-15.08-19.11-.33-.42-.66-.83-1.06-1.33-.3.22-.59.4-.85.62-2.22,1.8-4.43,3.62-6.67,5.4-.55.44-.79.89-.78,1.6.04,4.1.02,8.2.02,12.3v1.21h-6.19v-38.21h6.14v16.83c.41-.27.67-.41.9-.59,6.46-5.19,12.93-10.38,19.37-15.6.65-.53,1.3-.77,2.15-.76,2.22.05,4.45.02,6.79.25-5.46,4.44-10.92,8.88-16.47,13.38Z"/><path class="cls-1" d="m384.74,156.04c-1.98,0-3.78.03-5.57-.03-.23,0-.53-.4-.66-.68-.11-.23-.02-.56-.02-.84,0-10.07,0-20.14,0-30.21v-1.4h-16.84v-5.27h40.04v5.18c-.41.02-.82.06-1.23.06-4.83,0-9.65.03-14.48-.02-1.02-.01-1.25.32-1.25,1.26.03,10.14.02,20.28.02,30.42v1.52Z"/><path class="cls-1" d="m154.19,156.1c-.47-.02-.93-.06-1.4-.06-7.92,0-15.85,0-23.77,0h-1.39v-38.44h6.18v32.78c.31.03.51.07.72.07,6.34,0,12.68,0,19.02,0,.21,0,.43-.04.64-.06,0,0-.03-.02-.03-.02v5.76l.03-.02Z"/><path class="cls-1" d="m107.33,155.95v-38.43h6.31v38.43h-6.31Z"/></g></g></svg>